{
  "asset": {
    "generator": "glTF-Transform v3.9.0",
    "version": "2.0",
    "extras": {
      "author": "Andrea Spognetta (Spogna) (https://sketchfab.com/spogna)",
      "license": "CC-BY-NC-4.0 (http://creativecommons.org/licenses/by-nc/4.0/)",
      "source": "https://sketchfab.com/3d-models/fallen-tree-1234dacf05a542c39164df00646c8b20",
      "title": "Fallen Tree"
    }
  },
  "accessors": [
    {
      "type": "VEC3",
      "componentType": 5126,
      "count": 65532,
      "max": [
        7.784593105316162,
        15.813863754272461,
        2.5013461112976074
      ],
      "min": [
        -7.784692764282227,
        -15.81840705871582,
        -2.8569040298461914
      ],
      "bufferView": 0,
      "byteOffset": 0
    },
    {
      "type": "VEC3",
      "componentType": 5126,
      "count": 65532,
      "bufferView": 0,
      "byteOffset": 12
    },
    {
      "type": "VEC4",
      "componentType": 5126,
      "count": 65532,
      "bufferView": 0,
      "byteOffset": 24
    },
    {
      "type": "VEC2",
      "componentType": 5126,
      "count": 65532,
      "bufferView": 0,
      "byteOffset": 40
    },
    {
      "type": "VEC3",
      "componentType": 5126,
      "count": 65532,
      "max": [
        7.78469181060791,
        15.81850814819336,
        2.5203490257263184
      ],
      "min": [
        -7.784494876861572,
        -15.818623542785645,
        -2.8563170433044434
      ],
      "bufferView": 1,
      "byteOffset": 0
    },
    {
      "type": "VEC3",
      "componentType": 5126,
      "count": 65532,
      "bufferView": 1,
      "byteOffset": 12
    },
    {
      "type": "VEC4",
      "componentType": 5126,
      "count": 65532,
      "bufferView": 1,
      "byteOffset": 24
    },
    {
      "type": "VEC2",
      "componentType": 5126,
      "count": 65532,
      "bufferView": 1,
      "byteOffset": 40
    },
    {
      "type": "VEC3",
      "componentType": 5126,
      "count": 55178,
      "max": [
        7.781637191772461,
        15.818623542785645,
        2.861759901046753
      ],
      "min": [
        -7.784113883972168,
        -8.214192390441895,
        -2.861762046813965
      ],
      "bufferView": 2,
      "byteOffset": 0
    },
    {
      "type": "VEC3",
      "componentType": 5126,
      "count": 55178,
      "bufferView": 2,
      "byteOffset": 12
    },
    {
      "type": "VEC4",
      "componentType": 5126,
      "count": 55178,
      "bufferView": 2,
      "byteOffset": 24
    },
    {
      "type": "VEC2",
      "componentType": 5126,
      "count": 55178,
      "bufferView": 2,
      "byteOffset": 40
    },
    {
      "type": "SCALAR",
      "componentType": 5125,
      "count": 300549,
      "bufferView": 3,
      "byteOffset": 0
    },
    {
      "type": "SCALAR",
      "componentType": 5125,
      "count": 250662,
      "bufferView": 3,
      "byteOffset": 1202196
    },
    {
      "type": "SCALAR",
      "componentType": 5125,
      "count": 139818,
      "bufferView": 3,
      "byteOffset": 2204844
    }
  ],
  "bufferViews": [
    {
      "buffer": 0,
      "byteOffset": 0,
      "byteLength": 3145536,
      "byteStride": 48,
      "target": 34962
    },
    {
      "buffer": 0,
      "byteOffset": 3145536,
      "byteLength": 3145536,
      "byteStride": 48,
      "target": 34962
    },
    {
      "buffer": 0,
      "byteOffset": 6291072,
      "byteLength": 2648544,
      "byteStride": 48,
      "target": 34962
    },
    {
      "buffer": 0,
      "byteOffset": 8939616,
      "byteLength": 2764116,
      "target": 34963
    }
  ],
  "samplers": [
    {
      "magFilter": 9729,
      "minFilter": 9987,
      "wrapS": 10497,
      "wrapT": 10497
    }
  ],
  "textures": [
    {
      "source": 0,
      "sampler": 0
    },
    {
      "source": 1,
      "sampler": 0
    },
    {
      "source": 2,
      "sampler": 0
    }
  ],
  "images": [
    {
      "mimeType": "image/jpeg",
      "uri": "textures/material_0_diffuse.jpeg"
    },
    {
      "mimeType": "image/jpeg",
      "uri": "textures/material_0_normal.jpeg"
    },
    {
      "mimeType": "image/png",
      "uri": "textures/material_0_occlusion.png"
    }
  ],
  "buffers": [
    {
      "uri": "scene.bin",
      "byteLength": 11703732
    }
  ],
  "materials": [
    {
      "name": "material_0",
      "doubleSided": true,
      "pbrMetallicRoughness": {
        "roughnessFactor": 0.756097561,
        "metallicFactor": 0,
        "baseColorTexture": {
          "index": 0
        }
      },
      "normalTexture": {
        "index": 1
      },
      "occlusionTexture": {
        "index": 2
      },
      "extensions": {
        "KHR_materials_ior": {
          "ior": 1000
        },
        "KHR_materials_specular": {
          "specularColorFactor": [
            0,
            0,
            0
          ]
        }
      }
    }
  ],
  "meshes": [
    {
      "name": "Object_0",
      "primitives": [
        {
          "attributes": {
            "NORMAL": 1,
            "POSITION": 0,
            "TANGENT": 2,
            "TEXCOORD_0": 3
          },
          "mode": 4,
          "material": 0,
          "indices": 12
        }
      ]
    },
    {
      "name": "Object_1",
      "primitives": [
        {
          "attributes": {
            "NORMAL": 5,
            "POSITION": 4,
            "TANGENT": 6,
            "TEXCOORD_0": 7
          },
          "mode": 4,
          "material": 0,
          "indices": 13
        }
      ]
    },
    {
      "name": "Object_2",
      "primitives": [
        {
          "attributes": {
            "NORMAL": 9,
            "POSITION": 8,
            "TANGENT": 10,
            "TEXCOORD_0": 11
          },
          "mode": 4,
          "material": 0,
          "indices": 14
        }
      ]
    }
  ],
  "nodes": [
    {
      "name": "Sketchfab_model",
      "rotation": [
        -0.7071067811865475,
        0,
        0,
        0.7071067811865476
      ],
      "scale": [
        0.3333333432674408,
        0.3333333432674408,
        0.3333333432674408
      ],
      "children": [
        1
      ]
    },
    {
      "name": "FallenTree.obj.cleaner.materialmerger.gles",
      "children": [
        2,
        3,
        4
      ]
    },
    {
      "name": "Object_2",
      "mesh": 0
    },
    {
      "name": "Object_3",
      "mesh": 1
    },
    {
      "name": "Object_4",
      "mesh": 2
    }
  ],
  "scenes": [
    {
      "name": "Sketchfab_Scene",
      "nodes": [
        0
      ]
    }
  ],
  "scene": 0,
  "extensionsUsed": [
    "KHR_materials_ior",
    "KHR_materials_specular"
  ]
}